<svg width="14" height="15" viewBox="0 0 14 15" fill="none" xmlns="http://www.w3.org/2000/svg">
<g id="Visible--Streamline-Core.svg">
<g id="Visible--Streamline-Core.svg_2">
<path id="Vector" d="M13.2304 6.7463C13.3962 6.95302 13.488 7.22159 13.488 7.50006C13.488 7.77853 13.3962 8.0471 13.2304 8.25382C12.1804 9.52509 9.79034 12.0001 7.00034 12.0001C4.21034 12.0001 1.82034 9.52509 0.770334 8.25382C0.604494 8.0471 0.512695 7.77853 0.512695 7.50006C0.512695 7.22159 0.604494 6.95302 0.770334 6.7463C1.82034 5.47503 4.21034 3 7.00034 3C9.79034 3 12.1804 5.47503 13.2304 6.7463Z" stroke="#0C50E9" stroke-linecap="round" stroke-linejoin="round"/>
<path id="Vector_2" d="M7 9.5C8.10457 9.5 9 8.60457 9 7.5C9 6.39543 8.10457 5.5 7 5.5C5.89543 5.5 5 6.39543 5 7.5C5 8.60457 5.89543 9.5 7 9.5Z" stroke="#0C50E9" stroke-linecap="round" stroke-linejoin="round"/>
</g>
</g>
</svg>
